<svg xmlns="http://www.w3.org/2000/svg" viewBox="0 0 640 400" width="640" height="400" role="img">
  <defs>
    <linearGradient id="bg" x1="0" y1="0" x2="1" y2="1">
      <stop offset="0" stop-color="#1b2416"/><stop offset="1" stop-color="#0a0f08"/>
    </linearGradient>
    <radialGradient id="sheen" cx="0.32" cy="0.28" r="0.7">
      <stop offset="0" stop-color="#ffffff" stop-opacity="0.16"/>
      <stop offset="1" stop-color="#ffffff" stop-opacity="0"/>
    </radialGradient>
  </defs>
  <rect width="640" height="400" fill="url(#bg)"/>
  <rect width="640" height="400" fill="url(#sheen)"/>
  <circle cx="320" cy="205" r="150" fill="#cfd8bc" opacity="0.55"/>
  <circle cx="320" cy="200" r="132" fill="#eef3e2"/>
  <circle cx="320" cy="200" r="132" fill="none" stroke="#000" stroke-opacity="0.07" stroke-width="2"/>
  <circle cx="275.3" cy="189.8" r="20" fill="#4e8f3a"/><circle cx="348.5" cy="126.6" r="20" fill="#4e8f3a"/><circle cx="286.6" cy="230.8" r="20" fill="#4e8f3a"/><circle cx="249.3" cy="234.4" r="20" fill="#4e8f3a"/><circle cx="269.9" cy="199.9" r="20" fill="#4e8f3a"/><circle cx="225.7" cy="167.4" r="20" fill="#4e8f3a"/><circle cx="309.9" cy="159.9" r="20" fill="#4e8f3a"/><circle cx="279.3" cy="216.6" r="20" fill="#4e8f3a"/><circle cx="254.0" cy="241.1" r="20" fill="#4e8f3a"/><circle cx="258.8" cy="163.8" r="20" fill="#4e8f3a"/><circle cx="332.5" cy="276.5" r="20" fill="#4e8f3a"/><circle cx="387.4" cy="260.4" r="20" fill="#4e8f3a"/><circle cx="345.3" cy="184.7" r="20" fill="#4e8f3a"/><circle cx="416.2" cy="196.5" r="20" fill="#4e8f3a"/><circle cx="275.6" cy="252.4" r="20" fill="#4e8f3a"/><circle cx="241.8" cy="213.2" r="20" fill="#4e8f3a"/><circle cx="293.8" cy="152.5" r="11" fill="#6fb04d"/><circle cx="217.0" cy="211.8" r="11" fill="#6fb04d"/><circle cx="321.4" cy="259.4" r="11" fill="#6fb04d"/><circle cx="351.4" cy="183.9" r="11" fill="#6fb04d"/><circle cx="398.7" cy="253.0" r="11" fill="#6fb04d"/><circle cx="307.0" cy="244.0" r="11" fill="#6fb04d"/><circle cx="263.9" cy="145.8" r="11" fill="#6fb04d"/><circle cx="339.9" cy="256.3" r="11" fill="#6fb04d"/><circle cx="283.1" cy="226.8" r="11" fill="#6fb04d"/><circle cx="228.2" cy="164.2" r="11" fill="#6fb04d"/><circle cx="247.3" cy="189.7" r="11" fill="#6fb04d"/><circle cx="344.4" cy="181.3" r="11" fill="#6fb04d"/><circle cx="352.4" cy="140.5" r="8" fill="#e8d9a8"/><circle cx="338.5" cy="223.7" r="8" fill="#e8d9a8"/><circle cx="225.9" cy="229.9" r="8" fill="#e8d9a8"/><circle cx="316.6" cy="153.7" r="8" fill="#e8d9a8"/><circle cx="298.1" cy="270.6" r="8" fill="#e8d9a8"/><circle cx="274.1" cy="201.0" r="8" fill="#e8d9a8"/><circle cx="347.3" cy="220.9" r="8" fill="#e8d9a8"/><circle cx="371.8" cy="273.0" r="8" fill="#e8d9a8"/><circle cx="284.2" cy="220.6" r="8" fill="#e8d9a8"/>
</svg>
